<?xml version="1.0" standalone="no"?>
<!DOCTYPE svg PUBLIC "-//W3C//DTD SVG 20010904//EN"
 "http://www.w3.org/TR/2001/REC-SVG-20010904/DTD/svg10.dtd">
<svg version="1.0" xmlns="http://www.w3.org/2000/svg"
 width="225.000000pt" height="225.000000pt" viewBox="0 0 225.000000 225.000000"
 preserveAspectRatio="xMidYMid meet">

<g transform="translate(0.000000,225.000000) scale(0.100000,-0.100000)"
fill="#000000" stroke="none">
<path d="M780 1607 c-179 -128 -352 -251 -384 -275 l-59 -42 149 0 150 0 130
93 c71 51 178 128 237 171 67 49 111 75 119 70 7 -4 116 -81 242 -171 l228
-164 140 3 140 3 -278 199 c-154 110 -324 233 -380 273 -55 40 -103 73 -105
73 -2 0 -150 -105 -329 -233z"/>
<path d="M550 1650 c0 -71 3 -130 6 -130 4 0 64 42 135 92 126 91 129 94 129
130 l0 38 -135 0 -135 0 0 -130z"/>
<path d="M1429 1201 c-44 -14 -74 -39 -98 -81 -58 -104 -25 -246 70 -295 41
-22 111 -19 142 5 30 24 37 25 37 5 0 -10 11 -15 35 -15 l35 0 0 100 0 100
-80 0 -80 0 0 -30 c0 -28 2 -30 40 -30 44 0 50 -11 24 -48 -23 -34 -60 -45
-101 -31 -77 25 -94 169 -28 235 36 35 89 33 125 -6 19 -21 37 -30 59 -30 l31
0 0 60 0 60 -30 0 c-24 0 -30 -4 -30 -21 l0 -20 -30 21 c-34 24 -83 33 -121
21z"/>
<path d="M1797 1196 c-21 -8 -48 -22 -59 -33 -72 -63 -77 -219 -11 -299 57
-69 206 -72 261 -5 28 35 52 98 52 142 0 101 -48 177 -128 199 -48 13 -68 12
-115 -4z m123 -78 c67 -72 42 -225 -40 -243 -85 -19 -147 95 -110 201 21 60
110 85 150 42z"/>
<path d="M278 1184 c-35 -19 -48 -43 -48 -91 0 -70 35 -100 132 -113 67 -10
88 -23 88 -54 0 -34 -19 -46 -72 -46 -41 0 -50 4 -70 30 -15 21 -30 30 -49 30
-26 0 -27 -2 -31 -60 l-3 -60 34 0 c25 0 32 4 27 15 -7 19 -3 19 41 -5 74 -40
160 -14 189 57 37 87 -16 152 -136 168 -61 8 -80 19 -80 46 0 23 29 39 70 39
23 0 40 -9 61 -31 19 -20 36 -29 51 -27 20 3 23 9 26 61 l3 57 -31 0 c-24 0
-30 -4 -30 -21 l0 -20 -26 20 c-32 25 -105 28 -146 5z"/>
<path d="M612 1040 c-36 -107 -58 -160 -68 -160 -9 0 -14 -11 -14 -30 0 -29 2
-30 45 -30 43 0 44 1 55 40 l11 40 68 0 68 0 12 -40 12 -40 109 0 110 0 0 30
c0 20 -5 30 -15 30 -12 0 -15 18 -15 105 0 58 3 105 8 105 4 0 40 -61 81 -135
l73 -135 54 0 54 0 0 160 c0 136 2 160 15 160 10 0 15 10 15 30 l0 30 -65 0
-65 0 0 -30 c0 -20 5 -30 15 -30 12 0 15 -20 15 -117 l0 -118 -18 30 c-10 17
-47 83 -82 148 l-63 117 -62 0 c-62 0 -63 0 -67 -29 -3 -22 0 -31 14 -34 16
-5 18 -18 18 -130 0 -111 -2 -125 -18 -129 -43 -12 -54 5 -106 163 l-51 154
-45 3 -45 3 -53 -161z m125 -2 l19 -73 -44 -3 c-24 -2 -46 -1 -48 1 -6 6 38
147 46 147 4 0 16 -33 27 -72z"/>
<path d="M220 750 c0 -7 312 -10 915 -10 603 0 915 3 915 10 0 7 -312 10 -915
10 -603 0 -915 -3 -915 -10z"/>
<path d="M1030 683 c-12 -3 -14 -20 -12 -92 3 -87 4 -88 29 -88 14 0 20 2 15
6 -7 4 -11 42 -11 90 0 46 -1 84 -3 85 -2 1 -10 1 -18 -1z"/>
<path d="M1275 683 c-15 -5 -7 -183 8 -183 8 0 11 21 9 67 -4 105 -6 120 -17
116z"/>
<path d="M397 664 c-8 -8 1 -24 14 -24 5 0 9 7 9 15 0 15 -12 20 -23 9z"/>
<path d="M1195 661 c-6 -11 9 -23 19 -14 9 9 7 23 -3 23 -6 0 -12 -4 -16 -9z"/>
<path d="M1347 664 c-8 -8 1 -24 14 -24 5 0 9 7 9 15 0 15 -12 20 -23 9z"/>
<path d="M1692 661 c2 -7 7 -12 11 -12 12 1 9 15 -3 20 -7 2 -11 -2 -8 -8z"/>
<path d="M395 610 c-11 -5 -14 -9 -7 -9 10 -1 13 -14 10 -51 -2 -35 1 -50 10
-50 8 0 12 19 12 60 0 33 -1 60 -2 59 -2 0 -12 -4 -23 -9z"/>
<path d="M475 614 c-14 -5 -6 -114 8 -114 8 0 11 19 10 56 -1 59 -3 63 -18 58z"/>
<path d="M543 609 c12 -7 17 -23 17 -59 0 -33 4 -50 13 -50 8 0 11 15 8 52 -3
53 -12 68 -41 68 -12 -1 -11 -3 3 -11z"/>
<path d="M635 614 c-16 -6 -6 -114 11 -114 10 0 14 14 14 54 0 54 -5 67 -25
60z"/>
<path d="M693 609 c12 -7 17 -23 17 -59 0 -34 4 -50 13 -50 9 0 11 12 9 40 -3
24 1 47 9 57 8 10 9 14 2 10 -6 -4 -14 -3 -18 3 -3 5 -16 10 -28 10 -20 -1
-20 -2 -4 -11z"/>
<path d="M773 609 c12 -7 17 -23 17 -59 0 -33 4 -50 13 -50 8 0 11 15 8 52 -3
53 -12 68 -41 68 -12 -1 -11 -3 3 -11z"/>
<path d="M870 600 c-24 -24 -25 -48 -4 -78 22 -32 36 -27 18 6 -31 53 23 111
64 70 16 -16 16 -70 0 -86 -9 -9 -9 -12 -1 -12 14 0 43 39 43 58 0 22 -48 62
-75 62 -14 0 -34 -9 -45 -20z"/>
<path d="M1085 613 c43 -10 60 -67 29 -97 -14 -14 -14 -16 0 -16 19 0 36 30
36 64 0 28 -34 57 -65 55 -20 -1 -20 -1 0 -6z"/>
<path d="M1190 610 c-11 -7 -12 -10 -2 -10 10 0 13 -13 10 -50 -2 -35 1 -50
10 -50 8 0 12 19 12 60 0 61 -4 67 -30 50z"/>
<path d="M1340 610 c-11 -7 -12 -10 -2 -10 10 0 13 -13 10 -50 -2 -35 1 -50
10 -50 8 0 12 19 12 60 0 61 -4 67 -30 50z"/>
<path d="M1434 605 c-10 -8 -14 -15 -8 -15 5 0 15 5 21 11 16 16 57 7 61 -13
2 -13 -3 -18 -18 -18 -11 0 -35 -7 -51 -16 -36 -18 -35 -48 1 -52 20 -2 22 -1
10 7 -21 15 -1 45 34 49 21 3 26 -1 26 -18 0 -12 -9 -24 -22 -29 -20 -8 -18
-9 12 -9 l35 0 -3 46 c-5 67 -50 93 -98 57z"/>
<path d="M1585 614 c-14 -5 -6 -114 9 -114 7 0 10 14 8 40 -5 48 12 73 42 64
17 -5 19 -4 8 7 -10 11 -17 11 -32 2 -10 -7 -20 -9 -22 -4 -2 4 -7 6 -13 5z"/>
<path d="M1695 614 c-14 -6 -6 -114 8 -114 8 0 12 21 12 60 0 33 -2 60 -5 59
-3 0 -9 -2 -15 -5z"/>
<path d="M1774 605 c-10 -8 -14 -15 -8 -15 5 0 15 5 21 11 16 16 57 7 61 -13
2 -13 -3 -18 -17 -18 -11 0 -32 -5 -46 -12 -31 -14 -31 -51 0 -56 16 -3 17 -1
5 7 -21 15 -1 45 34 49 21 3 26 -1 26 -18 0 -12 -9 -24 -22 -29 -20 -8 -18 -9
12 -8 l35 1 -4 45 c-2 25 -8 52 -13 59 -14 16 -60 15 -84 -3z"/>
</g>
</svg>
